#VRML V2.0 utf8
# Open-frame dimensional envelope; cover shown separately in assembly review.
Transform { translation -5.75984252 0.00000000 1.40354331 children [ Shape { appearance Appearance { material Material { diffuseColor 0.7 0.7 0.7 } } geometry Box { size 0.07874016 7.32283465 2.80708661 } } ] }
Transform { translation 5.75984252 0.00000000 1.40354331 children [ Shape { appearance Appearance { material Material { diffuseColor 0.7 0.7 0.7 } } geometry Box { size 0.07874016 7.32283465 2.80708661 } } ] }
Transform { translation 0.00000000 -3.62204724 1.40354331 children [ Shape { appearance Appearance { material Material { diffuseColor 0.7 0.7 0.7 } } geometry Box { size 11.59842520 0.07874016 2.80708661 } } ] }
Transform { translation 0.00000000 3.62204724 1.40354331 children [ Shape { appearance Appearance { material Material { diffuseColor 0.7 0.7 0.7 } } geometry Box { size 11.59842520 0.07874016 2.80708661 } } ] }
